<svg xmlns="http://www.w3.org/2000/svg" width="1000.1" height="620.5"><path d="M0 441.5h129.2V478H45.6V514H118v35.4H45.6v67.5H0M212.3 441.5h45.8v175.3h-45.8zM374 441.5h45.7v136h81.7v39.3H374M567.8 441.5H635l30.2 117h.4l30.3-117h67.2v175.3h-42.9V483.7h-.5l-36.8 133h-35l-36.8-133h-.5v133h-43M893.2 557.9c1 20.6 13.8 27.3 33.1 27.3 13.8 0 28-5 28-18 0-15.4-25-18.4-50.4-25.5-25-7.2-51.2-18.4-51.2-50.7 0-38.2 38.5-53.2 71.4-53.2 34.9 0 70 17 70.3 56.5h-45.7c.7-16-14.2-21.2-28.2-21.2-9.9 0-22.1 3.5-22.1 15 0 13.6 25.2 16 50.8 23.1 25.3 7.2 50.9 19 50.9 50.7 0 44.4-37.9 58.6-76.5 58.6-40.2 0-75.8-17.6-76.1-62.6M773.6 330H770V329h8.6v1.1h-3.5v9.7h-1.5M779.9 328.9h1.9l3.4 9 3.4-9h1.9v10.7h-1.2v-9h-.1l-3.4 9h-1.2l-3.4-9v9h-1.3M730.8 0v126a403 403 0 0131-38.4v-69M418.3 339.6h25.4V294l-25.4-21.6M481.7 31l-4.7-5L418.4.2l46.2 48.7M505.1 295.3l5.8-4.8v-18l-27.1 22.8"/><path d="M464.5 68L400 0H212.3v339.6h192.8v-95.4l59.4 50.2 59.5-50.2v95.4H555c-.2-5.7-.5-19-.5-26.3 0-40.4 3.6-49.7 3.6-108 0-17.3-4-21.5-9.6-21.5-6.3 0-17 8.6-28.7 16.9-18.7 13.4-28.9 24-41 24-7.2 0-11.2-3.2-15.8-9-.8-1-3.3-5.9-3.3-9.7 0-4.3 1.8-9.2 8.4-13.3 7.1-4.3 15-3.4 32-13.7 20-12 39-22.9 42.8-25.4 7-3.6 5.3-9.2 5.3-14.4 0-11.3 10.1-15 18.7-15 8.4 0 13.5 3 14.9 3.5 3-1.7 11-6.3 26.2-15.6 10-6 15.4-18 27.2-18 5 0 9.4 1 13.4 4.2 6 5 7 7.7 7 11.7 0 9.2-14.4 17-22 21.6-23.3 14-30.6 17.6-39 23 1.1 5.2.3 19.5.3 30 0 17.7 4 50.1 4 68.4 0 21.6-1 48.5-1 55.1 0 10.9 1.3 23 2.3 31.5h117.6V229.8c-6.8 16.8-15 43.7-19.8 60.3-5.7 19.3-10.4 24.4-24.3 24.4-10.7 0-17.6-3.6-22.7-16.7l-25.1-66.1c-9-23.9-14.3-41.9-14.3-52.3 0-18.4 12.9-25.1 25.1-25.1 16.6 0 19.6 15.7 21.8 30.6a1381 1381 0 014.9 39.7c.5 5 1 10.9 6.9 10.9 5.1 0 7-7.6 11-18a459.5 459.5 0 0136.5-72.3V0H529.2M730.8 339.6h31V151.1a371.2 371.2 0 00-31 50.6"/></svg>